<?xml version="1.0" encoding="utf-8"?>
<!-- Generator: Adobe Illustrator 19.0.0, SVG Export Plug-In . SVG Version: 6.00 Build 0)  -->
<svg version="1.1" id="Layer_1" xmlns="http://www.w3.org/2000/svg" xmlns:xlink="http://www.w3.org/1999/xlink" x="0px" y="0px"
	 viewBox="1171 196.4 795.4 245.1" style="enable-background:new 1171 196.4 795.4 245.1;" xml:space="preserve">
<style type="text/css">
	.st0{fill:#F0AF19;}
</style>
<g id="Layer_2">
</g>
<g>
	<g>
		<path class="st0" d="M1760.9,214.5c0,0-48,12.6-82.6,21.5c8.4,2.1,15.2,4,20.8,5.8l41.1-10C1749.4,229.6,1757,223.2,1760.9,214.5
			L1760.9,214.5z"/>
		<path class="st0" d="M1652.8,230.1c5.2,1.1,10.1,2.2,14.6,3.3l80.5-19.7c9.2-2.3,16.9-8.6,20.7-17.3l0,0
			c0,0-106.3,27.4-124.9,32.2C1646.8,229,1649.8,229.5,1652.8,230.1z"/>
		<path class="st0" d="M1753.1,232.7c0,0-13.7,3.7-45.5,11.9c11.7,4,14.8,6.3,14.8,6.3s1.4,0.2,4,0.4l6-1.4
			C1741.6,247.7,1749.3,241.3,1753.1,232.7L1753.1,232.7z"/>
	</g>
</g>
<path d="M1171.1,358.4c-2.3,2.8,26.8-61,133.1-71.9c106.3-10.9,208.8-77.5,298.8-58s106.8,32,106.8,32s119.8,13,129.1,21.7
	c9.2,8.7-54.2,97.6-54.2,97.6s23.3-56.9,20.6-75.6c-2.7-18.7-78.1-20.4-120.9-11.1s-141.6,35.2-189.3,33.6
	c-47.7-1.6-78.1-19-78.1-19s66.2,12.5,124.7,1.6s123.1-36.9,115.5-45c-7.6-8.1-72.7-23.3-109.5-19.5c-36.8,3.8-165.4,48.8-225,54.2
	C1263.1,304.4,1207.7,315,1171.1,358.4z"/>
<g id="Layer_2_1_">
</g>
<path class="st0" d="M1242.3,360.7c-2,0-3-0.9-3-2.6c0-0.8,0.3-1.7,0.8-2.6l3-5.2c0.5-0.9,0.8-1.8,0.8-2.6c0-1.7-1-2.6-2.9-2.6
	c-1.4,0-2.9,0.5-4.5,1.5c-1.6,1-2.8,2.2-3.7,3.7l-20.9,36.2c-0.5,0.9-0.8,1.8-0.8,2.6c0,1.7,1,2.6,2.9,2.6c1.4,0,3-0.5,4.6-1.5
	c1.6-1,2.8-2.2,3.6-3.7l8.9-15.5c0.9-1.4,2.1-2.7,3.7-3.7c1.6-1,3.1-1.5,4.5-1.5h25.8c2,0,3,0.9,3,2.6c0,0.8-0.3,1.7-0.9,2.6
	l-12,20.7c-0.8,1.4-2,2.7-3.6,3.7c-1.6,1-3.1,1.5-4.5,1.5h-72.4c-2,0-3-0.9-3-2.6c0-0.8,0.3-1.7,0.8-2.6l26.9-46.5
	c0.8-1.4,2-2.7,3.6-3.7c1.6-1,3.1-1.5,4.6-1.5h72.4c1.9,0,2.9,0.9,2.9,2.6c0,0.8-0.3,1.7-0.8,2.6l-6,10.3c-0.8,1.4-2,2.7-3.6,3.7
	c-1.6,1-3.1,1.5-4.5,1.5H1242.3z"/>
<path class="st0" d="M1368.4,340.1c1.9,0,2.9,0.9,2.9,2.6c0,0.8-0.3,1.7-0.8,2.6l-26.9,46.5c-0.8,1.4-2,2.7-3.6,3.7
	c-1.6,1-3.1,1.5-4.5,1.5h-72.4c-2,0-3-0.9-3-2.6c0-0.8,0.3-1.7,0.8-2.6l12-20.7c0.9-1.4,2.1-2.7,3.7-3.7c1.6-1,3.1-1.5,4.5-1.5h36.2
	c1.4,0,3-0.5,4.5-1.5c1.6-1,2.8-2.2,3.7-3.7l6-10.3c0.5-0.9,0.7-1.8,0.7-2.6c0-1.7-1-2.6-2.9-2.6c-1.4,0-2.9,0.5-4.5,1.5
	c-1.6,1-2.8,2.2-3.6,3.7l-3,5.2c-0.8,1.4-2,2.6-3.6,3.6c-1.6,1-3.1,1.5-4.5,1.5h-25.9c-2,0-3-0.9-3-2.6c0-0.8,0.3-1.7,0.8-2.6
	l6-10.3c0.8-1.4,2-2.7,3.6-3.7c1.6-1,3.1-1.5,4.6-1.5H1368.4z M1316.5,376.2c0.5-0.9,0.8-1.8,0.8-2.6c0-1.7-1-2.6-3-2.6
	c-1.4,0-2.9,0.5-4.5,1.5c-1.6,1-2.8,2.2-3.6,3.7l-6,10.3c-0.5,0.9-0.8,1.8-0.8,2.6c0,1.7,1,2.6,2.9,2.6c1.4,0,3-0.5,4.6-1.5
	c1.6-1,2.8-2.2,3.6-3.7L1316.5,376.2z"/>
<path class="st0" d="M1457.2,340.1c1.9,0,2.9,0.9,2.9,2.6c0,0.8-0.3,1.7-0.8,2.6l-6,10.3c-0.8,1.4-2,2.7-3.6,3.7
	c-1.6,1-3.1,1.5-4.5,1.5h-25.8c-2,0-3-0.9-3-2.6c0-0.8,0.3-1.7,0.8-2.6l3-5.2c0.5-0.9,0.8-1.8,0.8-2.6c0-1.7-1-2.6-2.9-2.6
	c-1.4,0-2.9,0.5-4.5,1.5c-1.6,1-2.8,2.2-3.7,3.7l-24,41.3c-0.8,1.4-2,2.7-3.6,3.7c-1.6,1-3.1,1.5-4.5,1.5H1352c-2,0-3-0.9-3-2.6
	c0-0.8,0.3-1.7,0.8-2.6l26.9-46.5c0.8-1.4,2-2.7,3.6-3.7c1.6-1,3.1-1.5,4.6-1.5H1457.2z"/>
<path d="M1506.9,327.7c0.4,0.7,0.6,1.7,0.6,2.9c0,1.8-0.4,3.4-1.3,5l-32.5,56.2c-0.8,1.4-2,2.7-3.6,3.7c-1.6,1-3.1,1.5-4.5,1.5
	h-25.8c-2,0-3-0.9-3-2.6c0-0.8,0.3-1.7,0.8-2.6l32.8-56.9l17.2-29.7c1.1-1.9,2.2-2.8,3.3-2.8c0.6,0,1.2,0.3,1.6,1L1506.9,327.7z"/>
<path d="M1481.6,396.9c-2,0-3-0.9-3-2.6c0-0.8,0.3-1.7,0.8-2.6l26.9-46.5c0.8-1.4,2-2.7,3.6-3.7c1.6-1,3.1-1.5,4.6-1.5h25.8
	c1.9,0,2.9,0.9,2.9,2.6c0,0.8-0.3,1.7-0.8,2.6l-26.9,46.5c-0.8,1.4-2,2.7-3.6,3.7c-1.6,1-3.1,1.5-4.5,1.5H1481.6z"/>
<path d="M1591.8,360.7c-2,0-3-0.9-3-2.6c0-0.8,0.3-1.7,0.8-2.6l3-5.2c0.5-0.9,0.8-1.8,0.8-2.6c0-1.7-1-2.6-2.9-2.6
	c-1.4,0-2.9,0.5-4.5,1.5c-1.6,1-2.8,2.2-3.7,3.7l-6,10.3c-0.5,0.9-0.8,1.8-0.8,2.6c0,1.7,1,2.6,3,2.6h36.2c2,0,3,0.9,3,2.6
	c0,0.8-0.3,1.7-0.9,2.6l-12,20.7c-0.8,1.4-2,2.7-3.6,3.7c-1.6,1-3.1,1.5-4.5,1.5h-72.4c-2,0-3-0.9-3-2.6c0-0.8,0.3-1.7,0.8-2.6
	l6-10.3c0.8-1.4,2-2.7,3.6-3.7c1.6-1,3.1-1.5,4.6-1.5h25.8c1.9,0,2.9,0.9,2.9,2.6c0,0.8-0.3,1.7-0.8,2.6l-3,5.2
	c-0.5,0.9-0.8,1.8-0.8,2.6c0,1.7,1,2.6,2.9,2.6c1.4,0,3-0.5,4.6-1.5c1.6-1,2.8-2.2,3.6-3.7l6-10.3c0.5-0.9,0.7-1.8,0.7-2.6
	c0-1.7-1-2.6-3-2.6h-36.2c-1.9,0-2.9-0.9-2.9-2.6c0-0.8,0.3-1.7,0.8-2.6l12-20.7c0.8-1.4,2-2.7,3.6-3.7c1.6-1,3.1-1.5,4.6-1.5h72.4
	c1.9,0,2.9,0.9,2.9,2.6c0,0.8-0.3,1.7-0.8,2.6l-6,10.3c-0.8,1.4-2,2.7-3.6,3.7c-1.6,1-3.1,1.5-4.5,1.5H1591.8z"/>
<path d="M1621.6,431.8c-1.1,1.9-2.2,2.8-3.4,2.8c-0.6,0-1.2-0.4-1.6-1.1l-14.2-24.2c-0.4-0.7-0.6-1.6-0.6-2.7c0-2.1,0.5-4,1.6-5.8
	l50-86.6c0.8-1.4,2-2.7,3.6-3.7c1.6-1,3.1-1.5,4.6-1.5h25.8c1.9,0,2.9,0.9,2.9,2.6c0,0.8-0.3,1.7-0.8,2.6l-6,10.3
	c-0.5,0.9-0.8,1.8-0.8,2.6c0,1.7,1,2.6,3,2.6c2.6,0,3.9,0.6,3.9,1.8c0,1.1-0.9,1.9-2.8,2.6c-1.5,0.5-2.9,0.8-4.1,0.8
	c-1.4,0-2.9,0.5-4.5,1.5c-1.6,1-2.8,2.2-3.7,3.7L1621.6,431.8z"/>
<path d="M1652.2,396.9c-2,0-3-0.9-3-2.6c0-0.8,0.3-1.7,0.8-2.6l26.9-46.5c0.8-1.4,2-2.7,3.6-3.7c1.6-1,3.1-1.5,4.6-1.5h25.8
	c1.9,0,2.9,0.9,2.9,2.6c0,0.8-0.3,1.7-0.8,2.6l-26.9,46.5c-0.8,1.4-2,2.7-3.6,3.7c-1.6,1-3.1,1.5-4.5,1.5H1652.2z"/>
<path d="M1798.6,340.1c1.9,0,2.9,0.9,2.9,2.6c0,0.8-0.3,1.7-0.8,2.6l-26.9,46.5c-0.8,1.4-2,2.7-3.6,3.7c-1.6,1-3.1,1.5-4.5,1.5
	h-25.8c-2,0-3-0.9-3-2.6c0-0.8,0.3-1.7,0.8-2.6l23.9-41.4c0.5-0.9,0.8-1.8,0.8-2.6c0-1.7-1-2.6-2.9-2.6c-1.4,0-2.9,0.5-4.5,1.5
	c-1.6,1-2.8,2.2-3.7,3.7l-23.9,41.4c-0.8,1.4-2,2.7-3.6,3.7c-1.6,1-3.1,1.5-4.5,1.5h-25.9c-2,0-3-0.9-3-2.6c0-0.8,0.3-1.7,0.8-2.6
	l26.9-46.5c0.8-1.4,2-2.7,3.6-3.7c1.6-1,3.1-1.5,4.6-1.5H1798.6z"/>
<path d="M1818.8,409.3c-0.4-0.8-0.6-1.8-0.6-3c0-1.8,0.4-3.4,1.3-4.8c0.4-0.7,0.5-1.4,0.5-2c0-1.7-1-2.5-3.1-2.5h-36.2
	c-2,0-3-0.9-3-2.6c0-0.8,0.3-1.7,0.8-2.6l26.9-46.5c0.8-1.4,2-2.7,3.6-3.7c1.6-1,3.1-1.5,4.6-1.5h72.4c1.9,0,2.9,0.9,2.9,2.6
	c0,0.8-0.3,1.7-0.8,2.6l-6,10.3c-0.8,1.4-2,2.7-3.6,3.7c-1.6,1-3.1,1.5-4.5,1.5h-25.8c-2,0-3-0.9-3-2.6c0-0.8,0.2-1.7,0.8-2.6l3-5.2
	c0.5-0.9,0.8-1.8,0.8-2.6c0-1.7-1-2.6-2.9-2.6c-1.4,0-2.9,0.5-4.5,1.5c-1.6,1-2.8,2.2-3.7,3.7l-20.9,36.2c-0.5,0.9-0.8,1.8-0.8,2.6
	c0,1.7,1,2.6,2.9,2.6c1.4,0,3-0.5,4.6-1.5c1.6-1,2.8-2.2,3.6-3.7l8.9-15.5c0.9-1.4,2.1-2.7,3.7-3.7c1.6-1,3.1-1.5,4.5-1.5h25.9
	c2,0,3,0.9,3,2.6c0,0.8-0.3,1.7-0.9,2.6l-35,60.7c-1.1,1.9-2.2,2.8-3.4,2.8c-0.6,0-1.1-0.4-1.5-1.1L1818.8,409.3z"/>
</svg>
