<?xml version="1.0" encoding="utf-8"?>
<!-- Generator: Adobe Illustrator 19.0.0, SVG Export Plug-In . SVG Version: 6.00 Build 0)  -->
<svg version="1.1" id="Layer_1" xmlns="http://www.w3.org/2000/svg" xmlns:xlink="http://www.w3.org/1999/xlink" x="0px" y="0px"
	 viewBox="408 -109 874 273.7" style="enable-background:new 408 -109 874 273.7;" xml:space="preserve">
<style type="text/css">
	.st0{enable-background:new    ;}
</style>
<g id="Layer_2">
</g>
<g>
	<g>
		<path d="M1133.3-86.9c0,0-59,15.5-101.5,26.4c10.3,2.5,18.6,4.9,25.6,7.1l50.5-12.3C1119.2-68.3,1128.5-76.2,1133.3-86.9
			L1133.3-86.9z"/>
		<path d="M1000.5-67.7c6.4,1.4,12.4,2.7,17.9,4.1l99-24.1c11.3-2.8,20.8-10.6,25.4-21.3l0,0c0,0-130.6,33.6-153.5,39.5
			C993.1-69,996.8-68.4,1000.5-67.7z"/>
		<path d="M1123.7-64.5c0,0-16.8,4.5-55.9,14.7c14.4,4.9,18.2,7.8,18.2,7.8s1.7,0.3,4.9,0.4l7.3-1.7
			C1109.6-46.1,1119.1-53.9,1123.7-64.5L1123.7-64.5z"/>
	</g>
</g>
<path d="M408.6,90c-2.8,3.4,32.9-75,163.5-88.4s256.5-95.3,367.2-71.3s131.3,39.4,131.3,39.4s147.3,16,158.7,26.7
	C1240.6,7.1,1174.7,99,1174.7,99s16.6-52.6,13.3-75.7c-3.4-23-96-25.1-148.5-13.7C986.8,21,865.6,52.8,806.8,50.8
	c-58.6-2-96-23.3-96-23.3s81.3,15.4,153.2,2s151.2-45.3,141.9-55.3c-9.3-9.9-89.4-28.7-134.6-24c-45.2,4.7-203.3,60-276.5,66.6
	C521.7,23.6,453.5,36.6,408.6,90z"/>
<g id="Layer_2_1_">
</g>
<g class="st0">
	<path d="M518,68.7c2,0,2.9,0.9,2.9,2.6c0,0.8-0.3,1.7-0.8,2.6L492.9,121c-0.8,1.5-2,2.7-3.7,3.7s-3.1,1.5-4.5,1.5h-73.2
		c-2,0-3.1-0.9-3.1-2.6c0-0.8,0.3-1.7,0.8-2.6l12.1-20.9c0.9-1.5,2.1-2.7,3.7-3.7c1.6-1,3.1-1.5,4.6-1.5h36.6c1.5,0,3-0.5,4.6-1.5
		c1.6-1,2.8-2.2,3.7-3.7l6-10.4c0.5-1,0.7-1.8,0.7-2.6c0-1.8-1-2.6-2.9-2.6c-1.4,0-3,0.5-4.5,1.5c-1.6,1-2.8,2.3-3.7,3.7l-3,5.2
		c-0.8,1.4-2,2.7-3.7,3.7c-1.6,1-3.2,1.5-4.5,1.5h-26.2c-2,0-3.1-0.9-3.1-2.6c0-0.8,0.3-1.7,0.8-2.6l6.1-10.5c0.8-1.5,2-2.7,3.7-3.7
		c1.6-1,3.2-1.5,4.6-1.5H518z M465.4,105.3c0.5-0.9,0.8-1.8,0.8-2.6c0-1.7-1-2.6-3.1-2.6c-1.5,0-3,0.5-4.6,1.5
		c-1.6,1-2.8,2.3-3.6,3.7l-6.1,10.5c-0.5,0.9-0.8,1.8-0.8,2.6c0,1.7,1,2.6,2.9,2.6c1.5,0,3-0.5,4.6-1.5c1.6-1,2.9-2.2,3.7-3.7
		L465.4,105.3z"/>
	<path d="M576.5,121c2.6,0,3.9,0.6,3.9,1.9c0,1.1-0.9,2-2.8,2.6c-1.5,0.5-2.8,0.8-4,0.8h-73.2c-2,0-3.1-0.9-3.1-2.6
		c0-0.8,0.3-1.7,0.8-2.6l12.1-20.9c0.9-1.5,2.1-2.7,3.7-3.7c1.6-1,3.1-1.5,4.6-1.5H555c1.5,0,3-0.5,4.6-1.5c1.6-1,2.8-2.3,3.7-3.7
		l6-10.5c0.5-0.9,0.8-1.8,0.8-2.6c0-1.7-1-2.6-2.9-2.6h-36.6c-2.6,0-3.9-0.6-3.9-1.9c0-1.1,0.9-2,2.8-2.6c1.5-0.5,2.8-0.8,4.1-0.8
		h73.2c2,0,2.9,0.9,2.9,2.6c0,0.8-0.3,1.7-0.8,2.6l-12.1,20.9c-0.8,1.5-2,2.7-3.7,3.7c-1.6,1-3.2,1.5-4.6,1.5H552
		c-1.5,0-3,0.5-4.6,1.5c-1.6,1-2.8,2.3-3.6,3.7l-6.1,10.5c-0.5,0.9-0.8,1.8-0.8,2.6c0,1.7,1,2.6,2.9,2.6H576.5z"/>
	<path d="M591.9,126.2c-2,0-3.1-0.9-3.1-2.6c0-0.8,0.3-1.7,0.8-2.6l27.2-47.1c0.8-1.5,2-2.7,3.7-3.7c1.6-1,3.2-1.5,4.6-1.5h26.2
		c2,0,2.9,0.9,2.9,2.6c0,0.8-0.3,1.7-0.8,2.6L626.2,121c-0.8,1.5-2,2.7-3.7,3.7s-3.1,1.5-4.5,1.5H591.9z"/>
	<path d="M740.1,68.7c2,0,2.9,0.9,2.9,2.6c0,0.8-0.3,1.7-0.8,2.6l-6.1,10.5c-0.8,1.5-2,2.7-3.7,3.7c-1.6,1-3.1,1.5-4.5,1.5h-26.2
		c-2,0-3.1-0.9-3.1-2.6c0-0.8,0.3-1.7,0.8-2.6l3.1-5.2c0.5-0.9,0.8-1.8,0.8-2.6c0-1.7-1-2.6-2.9-2.6c-1.5,0-3,0.5-4.6,1.5
		c-1.6,1-2.8,2.3-3.7,3.7l-24.3,41.8c-0.8,1.5-2,2.7-3.6,3.7c-1.6,1-3.1,1.5-4.5,1.5h-26.1c-2,0-3-0.9-3-2.6c0-0.8,0.3-1.7,0.8-2.6
		l27.2-47.1c0.8-1.5,2-2.7,3.7-3.7c1.6-1,3.2-1.5,4.6-1.5H740.1z"/>
</g>
<g class="st0">
	<path d="M791.2,89.6c-2,0-3.1-0.9-3.1-2.6c0-0.8,0.3-1.7,0.8-2.6l3.1-5.2c0.5-0.9,0.8-1.8,0.8-2.6c0-1.7-1-2.6-2.9-2.6
		c-1.5,0-3,0.5-4.6,1.5c-1.6,1-2.8,2.3-3.7,3.7l-6.1,10.4c-0.5,1-0.8,1.8-0.8,2.6c0,1.8,1,2.6,3.1,2.6h36.6c2,0,3.1,0.9,3.1,2.6
		c0,0.8-0.3,1.7-0.9,2.6L804.4,121c-0.8,1.5-2,2.7-3.7,3.7s-3.1,1.5-4.5,1.5H723c-2,0-3.1-0.9-3.1-2.6c0-0.8,0.3-1.7,0.8-2.6
		l6.1-10.5c0.8-1.5,2-2.7,3.7-3.7c1.6-1,3.2-1.5,4.6-1.5h26.2c2,0,2.9,0.9,2.9,2.6c0,0.8-0.3,1.7-0.8,2.6l-3.1,5.2
		c-0.5,0.9-0.8,1.8-0.8,2.6c0,1.7,1,2.6,2.9,2.6c1.5,0,3-0.5,4.6-1.5c1.6-1,2.9-2.2,3.7-3.7l6.1-10.5c0.5-0.9,0.8-1.8,0.8-2.6
		c0-1.7-1-2.6-3.1-2.6H738c-2,0-2.9-0.9-2.9-2.6c0-0.8,0.3-1.7,0.8-2.6L748,73.9c0.8-1.5,2-2.7,3.7-3.7c1.6-1,3.2-1.5,4.6-1.5h73.2
		c2,0,2.9,0.9,2.9,2.6c0,0.8-0.3,1.7-0.8,2.6l-6.1,10.5c-0.8,1.5-2,2.7-3.7,3.7c-1.6,1-3.1,1.5-4.5,1.5H791.2z"/>
	<path d="M917.3,68.7c2,0,3.1,0.9,3.1,2.6c0,0.8-0.3,1.7-0.9,2.6L892.4,121c-0.9,1.5-2.1,2.7-3.7,3.7c-1.6,1-3.1,1.5-4.6,1.5h-36.6
		c-1.5,0-3,0.5-4.6,1.5s-2.8,2.3-3.7,3.7l-17.3,30.1c-1.1,1.9-2.2,2.8-3.4,2.8c-0.7,0-1.3-0.4-1.6-1.1l-14.5-24.5
		c-0.4-0.8-0.7-1.8-0.7-3.1c0-1.8,0.4-3.5,1.3-4.9l32.8-56.9c0.9-1.5,2.1-2.7,3.7-3.7c1.6-1,3.1-1.5,4.6-1.5H917.3z M879.8,79.1
		c0.6-0.9,0.9-1.8,0.9-2.6c0-1.7-1-2.6-3.1-2.6c-1.5,0-3,0.5-4.6,1.5c-1.6,1-2.8,2.3-3.7,3.7l-21.1,36.6c-0.5,0.9-0.8,1.8-0.8,2.6
		c0,1.7,1,2.6,3.1,2.6c1.5,0,3-0.5,4.6-1.5c1.6-1,2.8-2.3,3.6-3.7L879.8,79.1z"/>
	<path d="M1008.6,68.7c2,0,2.9,0.9,2.9,2.6c0,0.8-0.3,1.7-0.8,2.6L983.5,121c-0.8,1.5-2,2.7-3.7,3.7s-3.1,1.5-4.5,1.5h-73.2
		c-2,0-3.1-0.9-3.1-2.6c0-0.8,0.3-1.7,0.8-2.6l12.1-20.9c0.9-1.5,2.1-2.7,3.7-3.7c1.6-1,3.1-1.5,4.6-1.5h36.6c1.5,0,3-0.5,4.6-1.5
		c1.6-1,2.8-2.2,3.7-3.7l6-10.4c0.5-1,0.7-1.8,0.7-2.6c0-1.8-1-2.6-2.9-2.6c-1.4,0-3,0.5-4.5,1.5c-1.6,1-2.8,2.3-3.7,3.7l-3,5.2
		c-0.8,1.4-2,2.7-3.7,3.7c-1.6,1-3.2,1.5-4.5,1.5h-26.2c-2,0-3.1-0.9-3.1-2.6c0-0.8,0.3-1.7,0.8-2.6l6.1-10.5c0.8-1.5,2-2.7,3.7-3.7
		c1.6-1,3.2-1.5,4.6-1.5H1008.6z M956,105.3c0.5-0.9,0.8-1.8,0.8-2.6c0-1.7-1-2.6-3.1-2.6c-1.5,0-3,0.5-4.6,1.5
		c-1.6,1-2.8,2.3-3.6,3.7l-6.1,10.5c-0.5,0.9-0.8,1.8-0.8,2.6c0,1.7,1,2.6,2.9,2.6c1.5,0,3-0.5,4.6-1.5c1.6-1,2.9-2.2,3.7-3.7
		L956,105.3z"/>
	<path d="M1098.5,68.7c2,0,2.9,0.9,2.9,2.6c0,0.8-0.3,1.7-0.8,2.6l-6.1,10.5c-0.8,1.5-2,2.7-3.7,3.7c-1.6,1-3.1,1.5-4.5,1.5h-26.2
		c-2,0-3.1-0.9-3.1-2.6c0-0.8,0.3-1.7,0.8-2.6l3.1-5.2c0.5-0.9,0.8-1.8,0.8-2.6c0-1.7-1-2.6-2.9-2.6c-1.5,0-3,0.5-4.6,1.5
		c-1.6,1-2.8,2.3-3.7,3.7l-24.3,41.8c-0.8,1.5-2,2.7-3.6,3.7c-1.6,1-3.1,1.5-4.5,1.5H992c-2,0-3-0.9-3-2.6c0-0.8,0.3-1.7,0.8-2.6
		l27.2-47.1c0.8-1.5,2-2.7,3.7-3.7c1.6-1,3.2-1.5,4.6-1.5H1098.5z"/>
	<path d="M1127.8,101.6c-1.6,1-2.8,2.2-3.6,3.7l-6.1,10.4c-0.4,1-0.7,1.8-0.7,2.6c0,1.8,1,2.6,2.9,2.6c1.5,0,3-0.5,4.6-1.5
		s2.9-2.3,3.7-3.7l3.1-5.2c0.8-1.5,2-2.7,3.7-3.7c1.6-1,3.2-1.5,4.6-1.5h26.2c2,0,2.9,0.9,2.9,2.6c0,0.8-0.3,1.7-0.8,2.6l-6.1,10.5
		c-0.8,1.5-2,2.7-3.7,3.7s-3.1,1.5-4.5,1.5h-73.2c-2,0-3.1-0.9-3.1-2.6c0-0.8,0.3-1.7,0.8-2.6l27.2-47.1c0.8-1.5,2-2.7,3.7-3.7
		c1.6-1,3.2-1.5,4.6-1.5h73.2c2,0,2.9,0.9,2.9,2.6c0,0.8-0.3,1.7-0.8,2.6l-12.1,20.9c-0.8,1.5-2,2.7-3.7,3.7c-1.6,1-3.2,1.5-4.6,1.5
		h-36.7C1130.9,100.1,1129.4,100.6,1127.8,101.6z M1133.2,89.5c-0.5,1-0.8,1.8-0.8,2.6c0,1.8,1,2.7,3.1,2.7c1.5,0,3-0.5,4.6-1.5
		c1.6-1,2.8-2.3,3.7-3.7l6-10.5c0.5-0.9,0.8-1.8,0.8-2.6c0-1.7-1-2.6-3-2.6c-1.5,0-3,0.5-4.6,1.5c-1.6,1-2.8,2.2-3.7,3.7
		L1133.2,89.5z"/>
	<path d="M1239,89.6c-2,0-3.1-0.9-3.1-2.6c0-0.8,0.3-1.7,0.8-2.6l3.1-5.2c0.5-0.9,0.8-1.8,0.8-2.6c0-1.7-1-2.6-2.9-2.6
		c-1.5,0-3,0.5-4.6,1.5c-1.6,1-2.8,2.3-3.7,3.7l-6.1,10.4c-0.5,1-0.8,1.8-0.8,2.6c0,1.8,1,2.6,3.1,2.6h36.6c2,0,3.1,0.9,3.1,2.6
		c0,0.8-0.3,1.7-0.9,2.6l-12.1,20.9c-0.8,1.5-2,2.7-3.7,3.7s-3.1,1.5-4.5,1.5h-73.2c-2,0-3.1-0.9-3.1-2.6c0-0.8,0.3-1.7,0.8-2.6
		l6.1-10.5c0.8-1.5,2-2.7,3.7-3.7c1.6-1,3.2-1.5,4.6-1.5h26.2c2,0,2.9,0.9,2.9,2.6c0,0.8-0.3,1.7-0.8,2.6l-3.1,5.2
		c-0.5,0.9-0.8,1.8-0.8,2.6c0,1.7,1,2.6,2.9,2.6c1.5,0,3-0.5,4.6-1.5c1.6-1,2.9-2.2,3.7-3.7l6.1-10.5c0.5-0.9,0.8-1.8,0.8-2.6
		c0-1.7-1-2.6-3.1-2.6h-36.6c-2,0-2.9-0.9-2.9-2.6c0-0.8,0.3-1.7,0.8-2.6l12.1-20.9c0.8-1.5,2-2.7,3.7-3.7c1.6-1,3.2-1.5,4.6-1.5
		h73.2c2,0,2.9,0.9,2.9,2.6c0,0.8-0.3,1.7-0.8,2.6l-6.1,10.5c-0.8,1.5-2,2.7-3.7,3.7c-1.6,1-3.1,1.5-4.5,1.5H1239z"/>
</g>
</svg>
